<svg version="1" xmlns="http://www.w3.org/2000/svg" width="682.667" height="682.667" viewBox="0 0 512.000000 512.000000"><path d="M222.5 1.6c-7.1 1.2-16.2 2.8-22 3.8-15.4 3-40.5 12-59.6 21.6-49.2 24.6-89.5 64.9-114 114-9.5 18.9-18.6 44.2-21.5 59.5-.4 2.2-1.6 9.4-3.8 21.9-1.9 10.9-1.9 56.3 0 67.2 2.2 12.5 3.4 19.7 3.8 21.9 2.9 15.3 12 40.6 21.5 59.5 24.5 49.1 64.8 89.4 114 114 19.1 9.6 44.2 18.6 59.6 21.6 25.6 4.8 29.6 5.1 55.5 5.1 24.4 0 29.5-.4 47.5-3.7 45.3-8.5 88.1-29.5 122.8-60.4 34.1-30.5 57.6-66.1 73-110.6 2.4-7 6.4-20.8 7.3-25.5.4-2.2 1.6-9.4 3.8-21.9 1.9-10.9 1.9-56.3 0-67.2-2.2-12.5-3.4-19.7-3.8-21.9-2.9-15.3-12-40.6-21.5-59.5-24.5-49.1-64.8-89.4-114-114-19.1-9.6-44.2-18.6-59.6-21.6C285.9.6 281.9.3 256 .3c-16.5 0-28.3.4-33.5 1.3zm54.3 96c24.4 4.6 43.5 17.3 54.9 36.4 7.3 12.2 12.7 33.6 12.7 50-.1 6.5-1.8 20.9-3.4 27.5-2.3 9.8-8.7 29.6-10.1 31-.5.5-.9 1.5-.9 2.3 0 1.9-14.1 36.2-20.1 49-2.7 5.7-4.9 10.6-4.9 10.9 0 .8-26 53-32.3 64.8-13.6 25.6-17.1 32-17.7 32.5-.4.3-1 1.5-1.4 2.8-1 3-1.5 2.5-5.6-5.5-1.9-3.7-3.7-7-4-7.3-.9-.8-31-60.5-36.8-73-1.6-3.6-4.8-10.3-7-15-2.2-4.7-6.4-13.9-9.2-20.5-2.8-6.6-6-13.9-7.1-16.2-1-2.4-1.9-4.5-1.9-4.8 0-.4-.9-2.5-1.9-4.9-2.2-4.8-3.5-8.2-9-24.6-8.8-25.9-10.6-36.2-9.8-56 2-49.5 29.6-77.1 81.7-81.4 7.5-.6 25.6.4 33.8 2z"/><path d="M242 137.4c-3 .7-8.2 2.6-11.5 4.2-6.5 3.2-17.2 12.6-19.5 17.1-.8 1.5-1.9 3.5-2.5 4.3-2.1 2.7-4.7 12.4-5.2 19.3-1.2 14.4 3.7 27.5 14.3 38.1 19.1 19 49.4 19.4 68.2.8 5.1-5.1 11.2-13.1 11.2-14.8 0-.3.6-2 1.4-3.7 6.7-14.9 2-37.8-10.4-50.5-5.5-5.7-13.1-11.2-15.4-11.2-.8 0-1.7-.4-2.1-.9-.8-1.4-13.7-4.1-18.7-4-2.4.1-6.8.7-9.8 1.3z"/></svg>